<?xml version="1.0" encoding="UTF-8"?>
<svg width="95px" height="95px" viewBox="0 0 95 95" version="1.1" xmlns="http://www.w3.org/2000/svg" xmlns:xlink="http://www.w3.org/1999/xlink">
    <!-- Generator: Sketch 43 (38999) - http://www.bohemiancoding.com/sketch -->
    <title>User Icon</title>
    <desc>Created with Sketch.</desc>
    <defs></defs>
    <g id="Social" stroke="none" stroke-width="1" fill="none" fill-rule="evenodd">
        <g id="Profile" transform="translate(-328.000000, -220.000000)" fill="#FFFFFF">
            <g id="User-Icon" transform="translate(293.000000, 190.000000)">
                <path d="M130,114.817792 C130,108.403001 120.326902,104.839228 115.439443,102.904609 C112.486602,101.682744 109.43194,100.460879 106.4791,99.1371919 C102.508039,97.3043944 98.4351554,95.1661308 95.4823151,91.8060021 C94.4640943,90.5841372 93.8531618,89.7695606 93.8531618,88.1404073 C93.8531618,85.7984995 94.4640943,83.4565916 94.9732047,81.2165059 C95.7877814,77.7545552 97.5187567,74.903537 98.9442658,71.6452304 C100.573419,67.5723473 101.184352,63.2958199 101.998928,59.1211147 C102.304394,57.2883173 102.813505,55.5573419 102.813505,53.7245445 C102.813505,41.0986066 96.1950697,30 82.449089,30 C68.7031083,30 62.0846731,41.0986066 62.0846731,53.7245445 C62.0846731,55.5573419 62.6956056,57.2883173 63.0010718,59.1211147 C63.9174705,63.2958199 64.4265809,67.5723473 66.1575563,71.6452304 C67.5830654,74.903537 69.4158628,77.7545552 70.1286174,81.2165059 C70.7395498,83.4565916 71.2486602,85.7984995 71.2486602,88.1404073 C71.2486602,89.7695606 70.6377278,90.5841372 69.619507,91.8060021 C66.6666667,95.1661308 62.5937835,97.3043944 58.6227224,99.1371919 C55.6698821,100.562701 52.6152197,101.682744 49.6623794,102.904609 C44.7749196,104.94105 35,108.403001 35,114.817792 L35,125 L130,125 L130,119.094319 L130,114.817792 Z"></path>
            </g>
        </g>
    </g>
</svg>